<svg class="main-svg" xmlns="http://www.w3.org/2000/svg" xmlns:xlink="http://www.w3.org/1999/xlink" width="1600" height="900" style="" viewBox="0 0 1600 900"><rect x="0" y="0" width="1600" height="900" style="fill: rgb(255, 255, 255); fill-opacity: 1;"/><defs id="defs-125078"><g class="clips"><clipPath id="clip125078xyplot" class="plotclip"><rect width="1315" height="720"/></clipPath><clipPath class="axesclip" id="clip125078x"><rect x="80" y="0" width="1315" height="900"/></clipPath><clipPath class="axesclip" id="clip125078y"><rect x="0" y="100" width="1600" height="720"/></clipPath><clipPath class="axesclip" id="clip125078xy"><rect x="80" y="100" width="1315" height="720"/></clipPath></g><g class="gradients"/><g class="patterns"/></defs><g class="bglayer"><rect class="bg" x="80" y="100" width="1315" height="720" style="fill: rgb(229, 236, 246); fill-opacity: 1; stroke-width: 0;"/></g><g class="layer-below"><g class="imagelayer"/><g class="shapelayer"/></g><g class="cartesianlayer"><g class="subplot xy"><g class="layer-subplot"><g class="shapelayer"/><g class="imagelayer"/></g><g class="minor-gridlayer"><g class="x"/><g class="y"/></g><g class="gridlayer"><g class="x"><path class="xgrid crisp" transform="translate(149.5,0)" d="M0,100v720" style="stroke: rgb(255, 255, 255); stroke-opacity: 1; stroke-width: 1px;"/><path class="xgrid crisp" transform="translate(267.1,0)" d="M0,100v720" style="stroke: rgb(255, 255, 255); stroke-opacity: 1; stroke-width: 1px;"/><path class="xgrid crisp" transform="translate(384.7,0)" d="M0,100v720" style="stroke: rgb(255, 255, 255); stroke-opacity: 1; stroke-width: 1px;"/><path class="xgrid crisp" transform="translate(502.3,0)" d="M0,100v720" style="stroke: rgb(255, 255, 255); stroke-opacity: 1; stroke-width: 1px;"/><path class="xgrid crisp" transform="translate(619.9,0)" d="M0,100v720" style="stroke: rgb(255, 255, 255); stroke-opacity: 1; stroke-width: 1px;"/><path class="xgrid crisp" transform="translate(737.5,0)" d="M0,100v720" style="stroke: rgb(255, 255, 255); stroke-opacity: 1; stroke-width: 1px;"/><path class="xgrid crisp" transform="translate(855.1,0)" d="M0,100v720" style="stroke: rgb(255, 255, 255); stroke-opacity: 1; stroke-width: 1px;"/><path class="xgrid crisp" transform="translate(972.7,0)" d="M0,100v720" style="stroke: rgb(255, 255, 255); stroke-opacity: 1; stroke-width: 1px;"/><path class="xgrid crisp" transform="translate(1090.3,0)" d="M0,100v720" style="stroke: rgb(255, 255, 255); stroke-opacity: 1; stroke-width: 1px;"/><path class="xgrid crisp" transform="translate(1207.9,0)" d="M0,100v720" style="stroke: rgb(255, 255, 255); stroke-opacity: 1; stroke-width: 1px;"/><path class="xgrid crisp" transform="translate(1325.5,0)" d="M0,100v720" style="stroke: rgb(255, 255, 255); stroke-opacity: 1; stroke-width: 1px;"/></g><g class="y"><path class="ygrid crisp" transform="translate(0,796.34)" d="M80,0h1315" style="stroke: rgb(255, 255, 255); stroke-opacity: 1; stroke-width: 1px;"/><path class="ygrid crisp" transform="translate(0,723.48)" d="M80,0h1315" style="stroke: rgb(255, 255, 255); stroke-opacity: 1; stroke-width: 1px;"/><path class="ygrid crisp" transform="translate(0,650.63)" d="M80,0h1315" style="stroke: rgb(255, 255, 255); stroke-opacity: 1; stroke-width: 1px;"/><path class="ygrid crisp" transform="translate(0,577.78)" d="M80,0h1315" style="stroke: rgb(255, 255, 255); stroke-opacity: 1; stroke-width: 1px;"/><path class="ygrid crisp" transform="translate(0,504.93)" d="M80,0h1315" style="stroke: rgb(255, 255, 255); stroke-opacity: 1; stroke-width: 1px;"/><path class="ygrid crisp" transform="translate(0,432.07)" d="M80,0h1315" style="stroke: rgb(255, 255, 255); stroke-opacity: 1; stroke-width: 1px;"/><path class="ygrid crisp" transform="translate(0,359.22)" d="M80,0h1315" style="stroke: rgb(255, 255, 255); stroke-opacity: 1; stroke-width: 1px;"/><path class="ygrid crisp" transform="translate(0,286.37)" d="M80,0h1315" style="stroke: rgb(255, 255, 255); stroke-opacity: 1; stroke-width: 1px;"/><path class="ygrid crisp" transform="translate(0,213.51999999999998)" d="M80,0h1315" style="stroke: rgb(255, 255, 255); stroke-opacity: 1; stroke-width: 1px;"/><path class="ygrid crisp" transform="translate(0,140.66)" d="M80,0h1315" style="stroke: rgb(255, 255, 255); stroke-opacity: 1; stroke-width: 1px;"/></g></g><g class="zerolinelayer"/><g class="layer-between"><g class="shapelayer"/><g class="imagelayer"/></g><path class="xlines-below"/><path class="ylines-below"/><g class="overlines-below"/><g class="xaxislayer-below"/><g class="yaxislayer-below"/><g class="overaxes-below"/><g class="overplot"><g class="xy" transform="translate(80,100)" clip-path="url(#clip125078xyplot)"><g class="scatterlayer mlayer"><g class="trace scatter trace12e39e" style="stroke-miterlimit: 2; opacity: 1;"><g class="fills"/><g class="errorbars"/><g class="lines"><path class="js-line" d="M69.5,496.01L187.1,567.15L304.7,602.73L422.3,620.51L539.9,629.41L657.5,633.85L775.1,636.08L1010.3,637.74L1127.9,638.02" style="vector-effect: none; fill: none; stroke: rgb(99, 110, 250); stroke-opacity: 1; stroke-width: 2px; opacity: 1;"/></g><g class="points"><path class="point plotly-customdata" transform="translate(69.5,496.01)" d="M3,0A3,3 0 1,1 0,-3A3,3 0 0,1 3,0Z" style="opacity: 1; stroke-width: 0px; fill: rgb(99, 110, 250); fill-opacity: 1;"/><path class="point plotly-customdata" transform="translate(187.1,567.15)" d="M3,0A3,3 0 1,1 0,-3A3,3 0 0,1 3,0Z" style="opacity: 1; stroke-width: 0px; fill: rgb(99, 110, 250); fill-opacity: 1;"/><path class="point plotly-customdata" transform="translate(304.7,602.73)" d="M3,0A3,3 0 1,1 0,-3A3,3 0 0,1 3,0Z" style="opacity: 1; stroke-width: 0px; fill: rgb(99, 110, 250); fill-opacity: 1;"/><path class="point plotly-customdata" transform="translate(422.3,620.51)" d="M3,0A3,3 0 1,1 0,-3A3,3 0 0,1 3,0Z" style="opacity: 1; stroke-width: 0px; fill: rgb(99, 110, 250); fill-opacity: 1;"/><path class="point plotly-customdata" transform="translate(539.9,629.41)" d="M3,0A3,3 0 1,1 0,-3A3,3 0 0,1 3,0Z" style="opacity: 1; stroke-width: 0px; fill: rgb(99, 110, 250); fill-opacity: 1;"/><path class="point plotly-customdata" transform="translate(657.5,633.85)" d="M3,0A3,3 0 1,1 0,-3A3,3 0 0,1 3,0Z" style="opacity: 1; stroke-width: 0px; fill: rgb(99, 110, 250); fill-opacity: 1;"/><path class="point plotly-customdata" transform="translate(775.1,636.08)" d="M3,0A3,3 0 1,1 0,-3A3,3 0 0,1 3,0Z" style="opacity: 1; stroke-width: 0px; fill: rgb(99, 110, 250); fill-opacity: 1;"/><path class="point plotly-customdata" transform="translate(892.7,637.19)" d="M3,0A3,3 0 1,1 0,-3A3,3 0 0,1 3,0Z" style="opacity: 1; stroke-width: 0px; fill: rgb(99, 110, 250); fill-opacity: 1;"/><path class="point plotly-customdata" transform="translate(1010.3,637.74)" d="M3,0A3,3 0 1,1 0,-3A3,3 0 0,1 3,0Z" style="opacity: 1; stroke-width: 0px; fill: rgb(99, 110, 250); fill-opacity: 1;"/><path class="point plotly-customdata" transform="translate(1127.9,638.02)" d="M3,0A3,3 0 1,1 0,-3A3,3 0 0,1 3,0Z" style="opacity: 1; stroke-width: 0px; fill: rgb(99, 110, 250); fill-opacity: 1;"/></g><g class="text"/></g><g class="trace scatter trace8d03e4" style="stroke-miterlimit: 2; opacity: 1;"><g class="fills"/><g class="errorbars"/><g class="lines"><path class="js-line" d="M69.5,493.27L187.1,564.42L304.7,599.99L422.3,617.77L539.9,626.67L657.5,631.11L775.1,633.34L1010.3,635.01L1127.9,635.28" style="vector-effect: none; fill: none; stroke: rgb(239, 85, 59); stroke-opacity: 1; stroke-width: 2px; opacity: 1;"/></g><g class="points"><path class="point plotly-customdata" transform="translate(69.5,493.27)" d="M3,0A3,3 0 1,1 0,-3A3,3 0 0,1 3,0Z" style="opacity: 1; stroke-width: 0px; fill: rgb(239, 85, 59); fill-opacity: 1;"/><path class="point plotly-customdata" transform="translate(187.1,564.42)" d="M3,0A3,3 0 1,1 0,-3A3,3 0 0,1 3,0Z" style="opacity: 1; stroke-width: 0px; fill: rgb(239, 85, 59); fill-opacity: 1;"/><path class="point plotly-customdata" transform="translate(304.7,599.99)" d="M3,0A3,3 0 1,1 0,-3A3,3 0 0,1 3,0Z" style="opacity: 1; stroke-width: 0px; fill: rgb(239, 85, 59); fill-opacity: 1;"/><path class="point plotly-customdata" transform="translate(422.3,617.77)" d="M3,0A3,3 0 1,1 0,-3A3,3 0 0,1 3,0Z" style="opacity: 1; stroke-width: 0px; fill: rgb(239, 85, 59); fill-opacity: 1;"/><path class="point plotly-customdata" transform="translate(539.9,626.67)" d="M3,0A3,3 0 1,1 0,-3A3,3 0 0,1 3,0Z" style="opacity: 1; stroke-width: 0px; fill: rgb(239, 85, 59); fill-opacity: 1;"/><path class="point plotly-customdata" transform="translate(657.5,631.11)" d="M3,0A3,3 0 1,1 0,-3A3,3 0 0,1 3,0Z" style="opacity: 1; stroke-width: 0px; fill: rgb(239, 85, 59); fill-opacity: 1;"/><path class="point plotly-customdata" transform="translate(775.1,633.34)" d="M3,0A3,3 0 1,1 0,-3A3,3 0 0,1 3,0Z" style="opacity: 1; stroke-width: 0px; fill: rgb(239, 85, 59); fill-opacity: 1;"/><path class="point plotly-customdata" transform="translate(892.7,634.45)" d="M3,0A3,3 0 1,1 0,-3A3,3 0 0,1 3,0Z" style="opacity: 1; stroke-width: 0px; fill: rgb(239, 85, 59); fill-opacity: 1;"/><path class="point plotly-customdata" transform="translate(1010.3,635.01)" d="M3,0A3,3 0 1,1 0,-3A3,3 0 0,1 3,0Z" style="opacity: 1; stroke-width: 0px; fill: rgb(239, 85, 59); fill-opacity: 1;"/><path class="point plotly-customdata" transform="translate(1127.9,635.28)" d="M3,0A3,3 0 1,1 0,-3A3,3 0 0,1 3,0Z" style="opacity: 1; stroke-width: 0px; fill: rgb(239, 85, 59); fill-opacity: 1;"/></g><g class="text"/></g><g class="trace scatter trace4a80aa" style="stroke-miterlimit: 2; opacity: 1;"><g class="fills"/><g class="errorbars"/><g class="lines"><path class="js-line" d="M69.5,475.93L187.1,547.08L304.7,582.65L422.3,600.43L539.9,609.33L657.5,613.77L775.1,616L1010.3,617.66L1127.9,617.94" style="vector-effect: none; fill: none; stroke: rgb(0, 204, 150); stroke-opacity: 1; stroke-width: 2px; opacity: 1;"/></g><g class="points"><path class="point plotly-customdata" transform="translate(69.5,475.93)" d="M3,0A3,3 0 1,1 0,-3A3,3 0 0,1 3,0Z" style="opacity: 1; stroke-width: 0px; fill: rgb(0, 204, 150); fill-opacity: 1;"/><path class="point plotly-customdata" transform="translate(187.1,547.08)" d="M3,0A3,3 0 1,1 0,-3A3,3 0 0,1 3,0Z" style="opacity: 1; stroke-width: 0px; fill: rgb(0, 204, 150); fill-opacity: 1;"/><path class="point plotly-customdata" transform="translate(304.7,582.65)" d="M3,0A3,3 0 1,1 0,-3A3,3 0 0,1 3,0Z" style="opacity: 1; stroke-width: 0px; fill: rgb(0, 204, 150); fill-opacity: 1;"/><path class="point plotly-customdata" transform="translate(422.3,600.43)" d="M3,0A3,3 0 1,1 0,-3A3,3 0 0,1 3,0Z" style="opacity: 1; stroke-width: 0px; fill: rgb(0, 204, 150); fill-opacity: 1;"/><path class="point plotly-customdata" transform="translate(539.9,609.33)" d="M3,0A3,3 0 1,1 0,-3A3,3 0 0,1 3,0Z" style="opacity: 1; stroke-width: 0px; fill: rgb(0, 204, 150); fill-opacity: 1;"/><path class="point plotly-customdata" transform="translate(657.5,613.77)" d="M3,0A3,3 0 1,1 0,-3A3,3 0 0,1 3,0Z" style="opacity: 1; stroke-width: 0px; fill: rgb(0, 204, 150); fill-opacity: 1;"/><path class="point plotly-customdata" transform="translate(775.1,616)" d="M3,0A3,3 0 1,1 0,-3A3,3 0 0,1 3,0Z" style="opacity: 1; stroke-width: 0px; fill: rgb(0, 204, 150); fill-opacity: 1;"/><path class="point plotly-customdata" transform="translate(892.7,617.11)" d="M3,0A3,3 0 1,1 0,-3A3,3 0 0,1 3,0Z" style="opacity: 1; stroke-width: 0px; fill: rgb(0, 204, 150); fill-opacity: 1;"/><path class="point plotly-customdata" transform="translate(1010.3,617.66)" d="M3,0A3,3 0 1,1 0,-3A3,3 0 0,1 3,0Z" style="opacity: 1; stroke-width: 0px; fill: rgb(0, 204, 150); fill-opacity: 1;"/><path class="point plotly-customdata" transform="translate(1127.9,617.94)" d="M3,0A3,3 0 1,1 0,-3A3,3 0 0,1 3,0Z" style="opacity: 1; stroke-width: 0px; fill: rgb(0, 204, 150); fill-opacity: 1;"/></g><g class="text"/></g><g class="trace scatter traceccf1ec" style="stroke-miterlimit: 2; opacity: 1;"><g class="fills"/><g class="errorbars"/><g class="lines"><path class="js-line" d="M69.5,39.75L187.1,110.9L304.7,146.47L422.3,164.25L539.9,173.15L657.5,177.59L775.1,179.82L1010.3,181.48L1127.9,181.76" style="vector-effect: none; fill: none; stroke: rgb(171, 99, 250); stroke-opacity: 1; stroke-width: 2px; opacity: 1;"/></g><g class="points"><path class="point plotly-customdata" transform="translate(69.5,39.75)" d="M3,0A3,3 0 1,1 0,-3A3,3 0 0,1 3,0Z" style="opacity: 1; stroke-width: 0px; fill: rgb(171, 99, 250); fill-opacity: 1;"/><path class="point plotly-customdata" transform="translate(187.1,110.9)" d="M3,0A3,3 0 1,1 0,-3A3,3 0 0,1 3,0Z" style="opacity: 1; stroke-width: 0px; fill: rgb(171, 99, 250); fill-opacity: 1;"/><path class="point plotly-customdata" transform="translate(304.7,146.47)" d="M3,0A3,3 0 1,1 0,-3A3,3 0 0,1 3,0Z" style="opacity: 1; stroke-width: 0px; fill: rgb(171, 99, 250); fill-opacity: 1;"/><path class="point plotly-customdata" transform="translate(422.3,164.25)" d="M3,0A3,3 0 1,1 0,-3A3,3 0 0,1 3,0Z" style="opacity: 1; stroke-width: 0px; fill: rgb(171, 99, 250); fill-opacity: 1;"/><path class="point plotly-customdata" transform="translate(539.9,173.15)" d="M3,0A3,3 0 1,1 0,-3A3,3 0 0,1 3,0Z" style="opacity: 1; stroke-width: 0px; fill: rgb(171, 99, 250); fill-opacity: 1;"/><path class="point plotly-customdata" transform="translate(657.5,177.59)" d="M3,0A3,3 0 1,1 0,-3A3,3 0 0,1 3,0Z" style="opacity: 1; stroke-width: 0px; fill: rgb(171, 99, 250); fill-opacity: 1;"/><path class="point plotly-customdata" transform="translate(775.1,179.82)" d="M3,0A3,3 0 1,1 0,-3A3,3 0 0,1 3,0Z" style="opacity: 1; stroke-width: 0px; fill: rgb(171, 99, 250); fill-opacity: 1;"/><path class="point plotly-customdata" transform="translate(892.7,180.93)" d="M3,0A3,3 0 1,1 0,-3A3,3 0 0,1 3,0Z" style="opacity: 1; stroke-width: 0px; fill: rgb(171, 99, 250); fill-opacity: 1;"/><path class="point plotly-customdata" transform="translate(1010.3,181.48)" d="M3,0A3,3 0 1,1 0,-3A3,3 0 0,1 3,0Z" style="opacity: 1; stroke-width: 0px; fill: rgb(171, 99, 250); fill-opacity: 1;"/><path class="point plotly-customdata" transform="translate(1127.9,181.76)" d="M3,0A3,3 0 1,1 0,-3A3,3 0 0,1 3,0Z" style="opacity: 1; stroke-width: 0px; fill: rgb(171, 99, 250); fill-opacity: 1;"/></g><g class="text"/></g><g class="trace scatter trace8f53e8" style="stroke-miterlimit: 2; opacity: 1;"><g class="fills"/><g class="errorbars"/><g class="lines"><path class="js-line" d="M69.5,487.44L187.1,558.58L304.7,594.15L422.3,611.94L539.9,620.83L657.5,625.28L775.1,627.5L1010.3,629.17L1127.9,629.45" style="vector-effect: none; fill: none; stroke: rgb(255, 161, 90); stroke-opacity: 1; stroke-width: 2px; opacity: 1;"/></g><g class="points"><path class="point plotly-customdata" transform="translate(69.5,487.44)" d="M3,0A3,3 0 1,1 0,-3A3,3 0 0,1 3,0Z" style="opacity: 1; stroke-width: 0px; fill: rgb(255, 161, 90); fill-opacity: 1;"/><path class="point plotly-customdata" transform="translate(187.1,558.58)" d="M3,0A3,3 0 1,1 0,-3A3,3 0 0,1 3,0Z" style="opacity: 1; stroke-width: 0px; fill: rgb(255, 161, 90); fill-opacity: 1;"/><path class="point plotly-customdata" transform="translate(304.7,594.15)" d="M3,0A3,3 0 1,1 0,-3A3,3 0 0,1 3,0Z" style="opacity: 1; stroke-width: 0px; fill: rgb(255, 161, 90); fill-opacity: 1;"/><path class="point plotly-customdata" transform="translate(422.3,611.94)" d="M3,0A3,3 0 1,1 0,-3A3,3 0 0,1 3,0Z" style="opacity: 1; stroke-width: 0px; fill: rgb(255, 161, 90); fill-opacity: 1;"/><path class="point plotly-customdata" transform="translate(539.9,620.83)" d="M3,0A3,3 0 1,1 0,-3A3,3 0 0,1 3,0Z" style="opacity: 1; stroke-width: 0px; fill: rgb(255, 161, 90); fill-opacity: 1;"/><path class="point plotly-customdata" transform="translate(657.5,625.28)" d="M3,0A3,3 0 1,1 0,-3A3,3 0 0,1 3,0Z" style="opacity: 1; stroke-width: 0px; fill: rgb(255, 161, 90); fill-opacity: 1;"/><path class="point plotly-customdata" transform="translate(775.1,627.5)" d="M3,0A3,3 0 1,1 0,-3A3,3 0 0,1 3,0Z" style="opacity: 1; stroke-width: 0px; fill: rgb(255, 161, 90); fill-opacity: 1;"/><path class="point plotly-customdata" transform="translate(892.7,628.61)" d="M3,0A3,3 0 1,1 0,-3A3,3 0 0,1 3,0Z" style="opacity: 1; stroke-width: 0px; fill: rgb(255, 161, 90); fill-opacity: 1;"/><path class="point plotly-customdata" transform="translate(1010.3,629.17)" d="M3,0A3,3 0 1,1 0,-3A3,3 0 0,1 3,0Z" style="opacity: 1; stroke-width: 0px; fill: rgb(255, 161, 90); fill-opacity: 1;"/><path class="point plotly-customdata" transform="translate(1127.9,629.45)" d="M3,0A3,3 0 1,1 0,-3A3,3 0 0,1 3,0Z" style="opacity: 1; stroke-width: 0px; fill: rgb(255, 161, 90); fill-opacity: 1;"/></g><g class="text"/></g><g class="trace scatter traceba4695" style="stroke-miterlimit: 2; opacity: 1;"><g class="fills"/><g class="errorbars"/><g class="lines"><path class="js-line" d="M69.5,513.66L187.1,584.8L304.7,620.38L422.3,638.16L539.9,647.06L657.5,651.5L775.1,653.73L1010.3,655.39L1127.9,655.67" style="vector-effect: none; fill: none; stroke: rgb(25, 211, 243); stroke-opacity: 1; stroke-width: 2px; opacity: 1;"/></g><g class="points"><path class="point plotly-customdata" transform="translate(69.5,513.66)" d="M3,0A3,3 0 1,1 0,-3A3,3 0 0,1 3,0Z" style="opacity: 1; stroke-width: 0px; fill: rgb(25, 211, 243); fill-opacity: 1;"/><path class="point plotly-customdata" transform="translate(187.1,584.8)" d="M3,0A3,3 0 1,1 0,-3A3,3 0 0,1 3,0Z" style="opacity: 1; stroke-width: 0px; fill: rgb(25, 211, 243); fill-opacity: 1;"/><path class="point plotly-customdata" transform="translate(304.7,620.38)" d="M3,0A3,3 0 1,1 0,-3A3,3 0 0,1 3,0Z" style="opacity: 1; stroke-width: 0px; fill: rgb(25, 211, 243); fill-opacity: 1;"/><path class="point plotly-customdata" transform="translate(422.3,638.16)" d="M3,0A3,3 0 1,1 0,-3A3,3 0 0,1 3,0Z" style="opacity: 1; stroke-width: 0px; fill: rgb(25, 211, 243); fill-opacity: 1;"/><path class="point plotly-customdata" transform="translate(539.9,647.06)" d="M3,0A3,3 0 1,1 0,-3A3,3 0 0,1 3,0Z" style="opacity: 1; stroke-width: 0px; fill: rgb(25, 211, 243); fill-opacity: 1;"/><path class="point plotly-customdata" transform="translate(657.5,651.5)" d="M3,0A3,3 0 1,1 0,-3A3,3 0 0,1 3,0Z" style="opacity: 1; stroke-width: 0px; fill: rgb(25, 211, 243); fill-opacity: 1;"/><path class="point plotly-customdata" transform="translate(775.1,653.73)" d="M3,0A3,3 0 1,1 0,-3A3,3 0 0,1 3,0Z" style="opacity: 1; stroke-width: 0px; fill: rgb(25, 211, 243); fill-opacity: 1;"/><path class="point plotly-customdata" transform="translate(892.7,654.84)" d="M3,0A3,3 0 1,1 0,-3A3,3 0 0,1 3,0Z" style="opacity: 1; stroke-width: 0px; fill: rgb(25, 211, 243); fill-opacity: 1;"/><path class="point plotly-customdata" transform="translate(1010.3,655.39)" d="M3,0A3,3 0 1,1 0,-3A3,3 0 0,1 3,0Z" style="opacity: 1; stroke-width: 0px; fill: rgb(25, 211, 243); fill-opacity: 1;"/><path class="point plotly-customdata" transform="translate(1127.9,655.67)" d="M3,0A3,3 0 1,1 0,-3A3,3 0 0,1 3,0Z" style="opacity: 1; stroke-width: 0px; fill: rgb(25, 211, 243); fill-opacity: 1;"/></g><g class="text"/></g><g class="trace scatter trace07243d" style="stroke-miterlimit: 2; opacity: 1;"><g class="fills"/><g class="errorbars"/><g class="lines"><path class="js-line" d="M69.5,533.62L187.1,604.76L304.7,640.34L422.3,658.12L539.9,667.02L657.5,671.46L775.1,673.69L1010.3,675.35L1127.9,675.63" style="vector-effect: none; fill: none; stroke: rgb(255, 102, 146); stroke-opacity: 1; stroke-width: 2px; opacity: 1;"/></g><g class="points"><path class="point plotly-customdata" transform="translate(69.5,533.62)" d="M3,0A3,3 0 1,1 0,-3A3,3 0 0,1 3,0Z" style="opacity: 1; stroke-width: 0px; fill: rgb(255, 102, 146); fill-opacity: 1;"/><path class="point plotly-customdata" transform="translate(187.1,604.76)" d="M3,0A3,3 0 1,1 0,-3A3,3 0 0,1 3,0Z" style="opacity: 1; stroke-width: 0px; fill: rgb(255, 102, 146); fill-opacity: 1;"/><path class="point plotly-customdata" transform="translate(304.7,640.34)" d="M3,0A3,3 0 1,1 0,-3A3,3 0 0,1 3,0Z" style="opacity: 1; stroke-width: 0px; fill: rgb(255, 102, 146); fill-opacity: 1;"/><path class="point plotly-customdata" transform="translate(422.3,658.12)" d="M3,0A3,3 0 1,1 0,-3A3,3 0 0,1 3,0Z" style="opacity: 1; stroke-width: 0px; fill: rgb(255, 102, 146); fill-opacity: 1;"/><path class="point plotly-customdata" transform="translate(539.9,667.02)" d="M3,0A3,3 0 1,1 0,-3A3,3 0 0,1 3,0Z" style="opacity: 1; stroke-width: 0px; fill: rgb(255, 102, 146); fill-opacity: 1;"/><path class="point plotly-customdata" transform="translate(657.5,671.46)" d="M3,0A3,3 0 1,1 0,-3A3,3 0 0,1 3,0Z" style="opacity: 1; stroke-width: 0px; fill: rgb(255, 102, 146); fill-opacity: 1;"/><path class="point plotly-customdata" transform="translate(775.1,673.69)" d="M3,0A3,3 0 1,1 0,-3A3,3 0 0,1 3,0Z" style="opacity: 1; stroke-width: 0px; fill: rgb(255, 102, 146); fill-opacity: 1;"/><path class="point plotly-customdata" transform="translate(892.7,674.8)" d="M3,0A3,3 0 1,1 0,-3A3,3 0 0,1 3,0Z" style="opacity: 1; stroke-width: 0px; fill: rgb(255, 102, 146); fill-opacity: 1;"/><path class="point plotly-customdata" transform="translate(1010.3,675.35)" d="M3,0A3,3 0 1,1 0,-3A3,3 0 0,1 3,0Z" style="opacity: 1; stroke-width: 0px; fill: rgb(255, 102, 146); fill-opacity: 1;"/><path class="point plotly-customdata" transform="translate(1127.9,675.63)" d="M3,0A3,3 0 1,1 0,-3A3,3 0 0,1 3,0Z" style="opacity: 1; stroke-width: 0px; fill: rgb(255, 102, 146); fill-opacity: 1;"/></g><g class="text"/></g><g class="trace scatter traced9507c" style="stroke-miterlimit: 2; opacity: 1;"><g class="fills"/><g class="errorbars"/><g class="lines"><path class="js-line" d="M69.5,493.72L187.1,564.87L304.7,600.44L422.3,618.23L539.9,627.12L657.5,631.57L775.1,633.79L1010.3,635.46L1127.9,635.73" style="vector-effect: none; fill: none; stroke: rgb(182, 232, 128); stroke-opacity: 1; stroke-width: 2px; opacity: 1;"/></g><g class="points"><path class="point plotly-customdata" transform="translate(69.5,493.72)" d="M3,0A3,3 0 1,1 0,-3A3,3 0 0,1 3,0Z" style="opacity: 1; stroke-width: 0px; fill: rgb(182, 232, 128); fill-opacity: 1;"/><path class="point plotly-customdata" transform="translate(187.1,564.87)" d="M3,0A3,3 0 1,1 0,-3A3,3 0 0,1 3,0Z" style="opacity: 1; stroke-width: 0px; fill: rgb(182, 232, 128); fill-opacity: 1;"/><path class="point plotly-customdata" transform="translate(304.7,600.44)" d="M3,0A3,3 0 1,1 0,-3A3,3 0 0,1 3,0Z" style="opacity: 1; stroke-width: 0px; fill: rgb(182, 232, 128); fill-opacity: 1;"/><path class="point plotly-customdata" transform="translate(422.3,618.23)" d="M3,0A3,3 0 1,1 0,-3A3,3 0 0,1 3,0Z" style="opacity: 1; stroke-width: 0px; fill: rgb(182, 232, 128); fill-opacity: 1;"/><path class="point plotly-customdata" transform="translate(539.9,627.12)" d="M3,0A3,3 0 1,1 0,-3A3,3 0 0,1 3,0Z" style="opacity: 1; stroke-width: 0px; fill: rgb(182, 232, 128); fill-opacity: 1;"/><path class="point plotly-customdata" transform="translate(657.5,631.57)" d="M3,0A3,3 0 1,1 0,-3A3,3 0 0,1 3,0Z" style="opacity: 1; stroke-width: 0px; fill: rgb(182, 232, 128); fill-opacity: 1;"/><path class="point plotly-customdata" transform="translate(775.1,633.79)" d="M3,0A3,3 0 1,1 0,-3A3,3 0 0,1 3,0Z" style="opacity: 1; stroke-width: 0px; fill: rgb(182, 232, 128); fill-opacity: 1;"/><path class="point plotly-customdata" transform="translate(892.7,634.9)" d="M3,0A3,3 0 1,1 0,-3A3,3 0 0,1 3,0Z" style="opacity: 1; stroke-width: 0px; fill: rgb(182, 232, 128); fill-opacity: 1;"/><path class="point plotly-customdata" transform="translate(1010.3,635.46)" d="M3,0A3,3 0 1,1 0,-3A3,3 0 0,1 3,0Z" style="opacity: 1; stroke-width: 0px; fill: rgb(182, 232, 128); fill-opacity: 1;"/><path class="point plotly-customdata" transform="translate(1127.9,635.73)" d="M3,0A3,3 0 1,1 0,-3A3,3 0 0,1 3,0Z" style="opacity: 1; stroke-width: 0px; fill: rgb(182, 232, 128); fill-opacity: 1;"/></g><g class="text"/></g><g class="trace scatter trace43305a" style="stroke-miterlimit: 2; opacity: 1;"><g class="fills"/><g class="errorbars"/><g class="lines"><path class="js-line" d="M69.5,493.72L187.1,564.87L304.7,600.44L422.3,618.23L539.9,627.12L657.5,631.57L775.1,633.79L1010.3,635.46L1127.9,635.73" style="vector-effect: none; fill: none; stroke: rgb(255, 151, 255); stroke-opacity: 1; stroke-width: 2px; opacity: 1;"/></g><g class="points"><path class="point plotly-customdata" transform="translate(69.5,493.72)" d="M3,0A3,3 0 1,1 0,-3A3,3 0 0,1 3,0Z" style="opacity: 1; stroke-width: 0px; fill: rgb(255, 151, 255); fill-opacity: 1;"/><path class="point plotly-customdata" transform="translate(187.1,564.87)" d="M3,0A3,3 0 1,1 0,-3A3,3 0 0,1 3,0Z" style="opacity: 1; stroke-width: 0px; fill: rgb(255, 151, 255); fill-opacity: 1;"/><path class="point plotly-customdata" transform="translate(304.7,600.44)" d="M3,0A3,3 0 1,1 0,-3A3,3 0 0,1 3,0Z" style="opacity: 1; stroke-width: 0px; fill: rgb(255, 151, 255); fill-opacity: 1;"/><path class="point plotly-customdata" transform="translate(422.3,618.23)" d="M3,0A3,3 0 1,1 0,-3A3,3 0 0,1 3,0Z" style="opacity: 1; stroke-width: 0px; fill: rgb(255, 151, 255); fill-opacity: 1;"/><path class="point plotly-customdata" transform="translate(539.9,627.12)" d="M3,0A3,3 0 1,1 0,-3A3,3 0 0,1 3,0Z" style="opacity: 1; stroke-width: 0px; fill: rgb(255, 151, 255); fill-opacity: 1;"/><path class="point plotly-customdata" transform="translate(657.5,631.57)" d="M3,0A3,3 0 1,1 0,-3A3,3 0 0,1 3,0Z" style="opacity: 1; stroke-width: 0px; fill: rgb(255, 151, 255); fill-opacity: 1;"/><path class="point plotly-customdata" transform="translate(775.1,633.79)" d="M3,0A3,3 0 1,1 0,-3A3,3 0 0,1 3,0Z" style="opacity: 1; stroke-width: 0px; fill: rgb(255, 151, 255); fill-opacity: 1;"/><path class="point plotly-customdata" transform="translate(892.7,634.9)" d="M3,0A3,3 0 1,1 0,-3A3,3 0 0,1 3,0Z" style="opacity: 1; stroke-width: 0px; fill: rgb(255, 151, 255); fill-opacity: 1;"/><path class="point plotly-customdata" transform="translate(1010.3,635.46)" d="M3,0A3,3 0 1,1 0,-3A3,3 0 0,1 3,0Z" style="opacity: 1; stroke-width: 0px; fill: rgb(255, 151, 255); fill-opacity: 1;"/><path class="point plotly-customdata" transform="translate(1127.9,635.73)" d="M3,0A3,3 0 1,1 0,-3A3,3 0 0,1 3,0Z" style="opacity: 1; stroke-width: 0px; fill: rgb(255, 151, 255); fill-opacity: 1;"/></g><g class="text"/></g><g class="trace scatter trace710154" style="stroke-miterlimit: 2; opacity: 1;"><g class="fills"/><g class="errorbars"/><g class="lines"><path class="js-line" d="M69.5,510.26L187.1,581.4L304.7,616.98L422.3,634.76L539.9,643.66L657.5,648.1L775.1,650.33L1010.3,651.99L1127.9,652.27" style="vector-effect: none; fill: none; stroke: rgb(254, 203, 82); stroke-opacity: 1; stroke-width: 2px; opacity: 1;"/></g><g class="points"><path class="point plotly-customdata" transform="translate(69.5,510.26)" d="M3,0A3,3 0 1,1 0,-3A3,3 0 0,1 3,0Z" style="opacity: 1; stroke-width: 0px; fill: rgb(254, 203, 82); fill-opacity: 1;"/><path class="point plotly-customdata" transform="translate(187.1,581.4)" d="M3,0A3,3 0 1,1 0,-3A3,3 0 0,1 3,0Z" style="opacity: 1; stroke-width: 0px; fill: rgb(254, 203, 82); fill-opacity: 1;"/><path class="point plotly-customdata" transform="translate(304.7,616.98)" d="M3,0A3,3 0 1,1 0,-3A3,3 0 0,1 3,0Z" style="opacity: 1; stroke-width: 0px; fill: rgb(254, 203, 82); fill-opacity: 1;"/><path class="point plotly-customdata" transform="translate(422.3,634.76)" d="M3,0A3,3 0 1,1 0,-3A3,3 0 0,1 3,0Z" style="opacity: 1; stroke-width: 0px; fill: rgb(254, 203, 82); fill-opacity: 1;"/><path class="point plotly-customdata" transform="translate(539.9,643.66)" d="M3,0A3,3 0 1,1 0,-3A3,3 0 0,1 3,0Z" style="opacity: 1; stroke-width: 0px; fill: rgb(254, 203, 82); fill-opacity: 1;"/><path class="point plotly-customdata" transform="translate(657.5,648.1)" d="M3,0A3,3 0 1,1 0,-3A3,3 0 0,1 3,0Z" style="opacity: 1; stroke-width: 0px; fill: rgb(254, 203, 82); fill-opacity: 1;"/><path class="point plotly-customdata" transform="translate(775.1,650.33)" d="M3,0A3,3 0 1,1 0,-3A3,3 0 0,1 3,0Z" style="opacity: 1; stroke-width: 0px; fill: rgb(254, 203, 82); fill-opacity: 1;"/><path class="point plotly-customdata" transform="translate(892.7,651.44)" d="M3,0A3,3 0 1,1 0,-3A3,3 0 0,1 3,0Z" style="opacity: 1; stroke-width: 0px; fill: rgb(254, 203, 82); fill-opacity: 1;"/><path class="point plotly-customdata" transform="translate(1010.3,651.99)" d="M3,0A3,3 0 1,1 0,-3A3,3 0 0,1 3,0Z" style="opacity: 1; stroke-width: 0px; fill: rgb(254, 203, 82); fill-opacity: 1;"/><path class="point plotly-customdata" transform="translate(1127.9,652.27)" d="M3,0A3,3 0 1,1 0,-3A3,3 0 0,1 3,0Z" style="opacity: 1; stroke-width: 0px; fill: rgb(254, 203, 82); fill-opacity: 1;"/></g><g class="text"/></g><g class="trace scatter tracea2ecb4" style="stroke-miterlimit: 2; opacity: 1;"><g class="fills"/><g class="errorbars"/><g class="lines"><path class="js-line" d="M1245.5,680.25" style="vector-effect: none; fill: none; stroke: rgb(99, 110, 250); stroke-opacity: 1; stroke-width: 2px; opacity: 1;"/></g><g class="points"><path class="point plotly-customdata" transform="translate(1245.5,680.25)" d="M3,0A3,3 0 1,1 0,-3A3,3 0 0,1 3,0Z" style="opacity: 1; stroke-width: 0px; fill: rgb(99, 110, 250); fill-opacity: 1;"/></g><g class="text"/></g></g></g></g><path class="xlines-above crisp" d="M0,0" style="fill: none;"/><path class="ylines-above crisp" d="M0,0" style="fill: none;"/><g class="overlines-above"/><g class="xaxislayer-above"><g class="xtick"><text text-anchor="middle" x="0" y="833" transform="translate(149.5,0)" style="font-family: 'Open Sans', verdana, arial, sans-serif; font-size: 12px; fill: rgb(42, 63, 95); fill-opacity: 1; white-space: pre; opacity: 1;">2</text></g><g class="xtick"><text text-anchor="middle" x="0" y="833" transform="translate(267.1,0)" style="font-family: 'Open Sans', verdana, arial, sans-serif; font-size: 12px; fill: rgb(42, 63, 95); fill-opacity: 1; white-space: pre; opacity: 1;">4</text></g><g class="xtick"><text text-anchor="middle" x="0" y="833" transform="translate(384.7,0)" style="font-family: 'Open Sans', verdana, arial, sans-serif; font-size: 12px; fill: rgb(42, 63, 95); fill-opacity: 1; white-space: pre; opacity: 1;">8</text></g><g class="xtick"><text text-anchor="middle" x="0" y="833" transform="translate(502.3,0)" style="font-family: 'Open Sans', verdana, arial, sans-serif; font-size: 12px; fill: rgb(42, 63, 95); fill-opacity: 1; white-space: pre; opacity: 1;">16</text></g><g class="xtick"><text text-anchor="middle" x="0" y="833" transform="translate(619.9,0)" style="font-family: 'Open Sans', verdana, arial, sans-serif; font-size: 12px; fill: rgb(42, 63, 95); fill-opacity: 1; white-space: pre; opacity: 1;">32</text></g><g class="xtick"><text text-anchor="middle" x="0" y="833" transform="translate(737.5,0)" style="font-family: 'Open Sans', verdana, arial, sans-serif; font-size: 12px; fill: rgb(42, 63, 95); fill-opacity: 1; white-space: pre; opacity: 1;">64</text></g><g class="xtick"><text text-anchor="middle" x="0" y="833" transform="translate(855.1,0)" style="font-family: 'Open Sans', verdana, arial, sans-serif; font-size: 12px; fill: rgb(42, 63, 95); fill-opacity: 1; white-space: pre; opacity: 1;">128</text></g><g class="xtick"><text text-anchor="middle" x="0" y="833" transform="translate(972.7,0)" style="font-family: 'Open Sans', verdana, arial, sans-serif; font-size: 12px; fill: rgb(42, 63, 95); fill-opacity: 1; white-space: pre; opacity: 1;">256</text></g><g class="xtick"><text text-anchor="middle" x="0" y="833" transform="translate(1090.3,0)" style="font-family: 'Open Sans', verdana, arial, sans-serif; font-size: 12px; fill: rgb(42, 63, 95); fill-opacity: 1; white-space: pre; opacity: 1;">512</text></g><g class="xtick"><text text-anchor="middle" x="0" y="833" transform="translate(1207.9,0)" style="font-family: 'Open Sans', verdana, arial, sans-serif; font-size: 12px; fill: rgb(42, 63, 95); fill-opacity: 1; white-space: pre; opacity: 1;">1024</text></g><g class="xtick"><text text-anchor="middle" x="0" y="833" transform="translate(1325.5,0)" style="font-family: 'Open Sans', verdana, arial, sans-serif; font-size: 12px; fill: rgb(42, 63, 95); fill-opacity: 1; white-space: pre; opacity: 1;">1</text></g></g><g class="yaxislayer-above"><g class="ytick"><text text-anchor="end" x="79" y="4.199999999999999" transform="translate(0,796.34)" style="font-family: 'Open Sans', verdana, arial, sans-serif; font-size: 12px; fill: rgb(42, 63, 95); fill-opacity: 1; white-space: pre; opacity: 1;">1k</text></g><g class="ytick"><text text-anchor="end" x="79" y="4.199999999999999" style="font-family: 'Open Sans', verdana, arial, sans-serif; font-size: 12px; fill: rgb(42, 63, 95); fill-opacity: 1; white-space: pre; opacity: 1;" transform="translate(0,723.48)">2k</text></g><g class="ytick"><text text-anchor="end" x="79" y="4.199999999999999" style="font-family: 'Open Sans', verdana, arial, sans-serif; font-size: 12px; fill: rgb(42, 63, 95); fill-opacity: 1; white-space: pre; opacity: 1;" transform="translate(0,650.63)">3k</text></g><g class="ytick"><text text-anchor="end" x="79" y="4.199999999999999" style="font-family: 'Open Sans', verdana, arial, sans-serif; font-size: 12px; fill: rgb(42, 63, 95); fill-opacity: 1; white-space: pre; opacity: 1;" transform="translate(0,577.78)">4k</text></g><g class="ytick"><text text-anchor="end" x="79" y="4.199999999999999" style="font-family: 'Open Sans', verdana, arial, sans-serif; font-size: 12px; fill: rgb(42, 63, 95); fill-opacity: 1; white-space: pre; opacity: 1;" transform="translate(0,504.93)">5k</text></g><g class="ytick"><text text-anchor="end" x="79" y="4.199999999999999" style="font-family: 'Open Sans', verdana, arial, sans-serif; font-size: 12px; fill: rgb(42, 63, 95); fill-opacity: 1; white-space: pre; opacity: 1;" transform="translate(0,432.07)">6k</text></g><g class="ytick"><text text-anchor="end" x="79" y="4.199999999999999" style="font-family: 'Open Sans', verdana, arial, sans-serif; font-size: 12px; fill: rgb(42, 63, 95); fill-opacity: 1; white-space: pre; opacity: 1;" transform="translate(0,359.22)">7k</text></g><g class="ytick"><text text-anchor="end" x="79" y="4.199999999999999" style="font-family: 'Open Sans', verdana, arial, sans-serif; font-size: 12px; fill: rgb(42, 63, 95); fill-opacity: 1; white-space: pre; opacity: 1;" transform="translate(0,286.37)">8k</text></g><g class="ytick"><text text-anchor="end" x="79" y="4.199999999999999" style="font-family: 'Open Sans', verdana, arial, sans-serif; font-size: 12px; fill: rgb(42, 63, 95); fill-opacity: 1; white-space: pre; opacity: 1;" transform="translate(0,213.51999999999998)">9k</text></g><g class="ytick"><text text-anchor="end" x="79" y="4.199999999999999" style="font-family: 'Open Sans', verdana, arial, sans-serif; font-size: 12px; fill: rgb(42, 63, 95); fill-opacity: 1; white-space: pre; opacity: 1;" transform="translate(0,140.66)">10k</text></g></g><g class="overaxes-above"/></g></g><g class="polarlayer"/><g class="smithlayer"/><g class="ternarylayer"/><g class="geolayer"/><g class="funnelarealayer"/><g class="pielayer"/><g class="iciclelayer"/><g class="treemaplayer"/><g class="sunburstlayer"/><g class="glimages"/><defs id="topdefs-125078"><g class="clips"/><clipPath id="legend125078"><rect width="167" height="238" x="0" y="0"/></clipPath></defs><g class="layer-above"><g class="imagelayer"/><g class="shapelayer"/></g><g class="infolayer"><g class="legend" pointer-events="all" transform="translate(1421.3,100)"><rect class="bg" shape-rendering="crispEdges" style="stroke: rgb(68, 68, 68); stroke-opacity: 1; fill: rgb(255, 255, 255); fill-opacity: 1; stroke-width: 0px;" width="167" height="238" x="0" y="0"/><g class="scrollbox" transform="" clip-path="url(#legend125078)"><text class="legendtitletext" text-anchor="start" x="2" y="18.2" style="font-family: 'Open Sans', verdana, arial, sans-serif; font-size: 14px; fill: rgb(42, 63, 95); fill-opacity: 1; white-space: pre;">Codec Type</text><g class="groups"><g class="traces" transform="translate(0,32.7)" style="opacity: 1;"><text class="legendtext" text-anchor="start" x="40" y="4.680000000000001" style="font-family: 'Open Sans', verdana, arial, sans-serif; font-size: 12px; fill: rgb(42, 63, 95); fill-opacity: 1; white-space: pre;">Dsi(Delta)</text><g class="layers" style="opacity: 1;"><g class="legendfill"/><g class="legendlines"><path class="js-line" d="M5,0h30" style="fill: none; stroke: rgb(99, 110, 250); stroke-opacity: 1; stroke-width: 2px;"/></g><g class="legendsymbols"><g class="legendpoints"><path class="scatterpts" transform="translate(20,0)" d="M3,0A3,3 0 1,1 0,-3A3,3 0 0,1 3,0Z" style="opacity: 1; stroke-width: 0px; fill: rgb(99, 110, 250); fill-opacity: 1;"/></g></g></g><rect class="legendtoggle" x="0" y="-9.5" width="161.765625" height="19" style="fill: rgb(0, 0, 0); fill-opacity: 0;"/></g><g class="traces" transform="translate(0,51.7)" style="opacity: 1;"><text class="legendtext" text-anchor="start" x="40" y="4.680000000000001" style="font-family: 'Open Sans', verdana, arial, sans-serif; font-size: 12px; fill: rgb(42, 63, 95); fill-opacity: 1; white-space: pre;">Dsi(ExpGolombk=2)</text><g class="layers" style="opacity: 1;"><g class="legendfill"/><g class="legendlines"><path class="js-line" d="M5,0h30" style="fill: none; stroke: rgb(239, 85, 59); stroke-opacity: 1; stroke-width: 2px;"/></g><g class="legendsymbols"><g class="legendpoints"><path class="scatterpts" transform="translate(20,0)" d="M3,0A3,3 0 1,1 0,-3A3,3 0 0,1 3,0Z" style="opacity: 1; stroke-width: 0px; fill: rgb(239, 85, 59); fill-opacity: 1;"/></g></g></g><rect class="legendtoggle" x="0" y="-9.5" width="161.765625" height="19" style="fill: rgb(0, 0, 0); fill-opacity: 0;"/></g><g class="traces" transform="translate(0,70.7)" style="opacity: 1;"><text class="legendtext" text-anchor="start" x="40" y="4.680000000000001" style="font-family: 'Open Sans', verdana, arial, sans-serif; font-size: 12px; fill: rgb(42, 63, 95); fill-opacity: 1; white-space: pre;">Dsi(Gamma)</text><g class="layers" style="opacity: 1;"><g class="legendfill"/><g class="legendlines"><path class="js-line" d="M5,0h30" style="fill: none; stroke: rgb(0, 204, 150); stroke-opacity: 1; stroke-width: 2px;"/></g><g class="legendsymbols"><g class="legendpoints"><path class="scatterpts" transform="translate(20,0)" d="M3,0A3,3 0 1,1 0,-3A3,3 0 0,1 3,0Z" style="opacity: 1; stroke-width: 0px; fill: rgb(0, 204, 150); fill-opacity: 1;"/></g></g></g><rect class="legendtoggle" x="0" y="-9.5" width="161.765625" height="19" style="fill: rgb(0, 0, 0); fill-opacity: 0;"/></g><g class="traces" transform="translate(0,89.7)" style="opacity: 1;"><text class="legendtext" text-anchor="start" x="40" y="4.680000000000001" style="font-family: 'Open Sans', verdana, arial, sans-serif; font-size: 12px; fill: rgb(42, 63, 95); fill-opacity: 1; white-space: pre;">Dsi(Golombb=8)</text><g class="layers" style="opacity: 1;"><g class="legendfill"/><g class="legendlines"><path class="js-line" d="M5,0h30" style="fill: none; stroke: rgb(171, 99, 250); stroke-opacity: 1; stroke-width: 2px;"/></g><g class="legendsymbols"><g class="legendpoints"><path class="scatterpts" transform="translate(20,0)" d="M3,0A3,3 0 1,1 0,-3A3,3 0 0,1 3,0Z" style="opacity: 1; stroke-width: 0px; fill: rgb(171, 99, 250); fill-opacity: 1;"/></g></g></g><rect class="legendtoggle" x="0" y="-9.5" width="161.765625" height="19" style="fill: rgb(0, 0, 0); fill-opacity: 0;"/></g><g class="traces" transform="translate(0,108.7)" style="opacity: 1;"><text class="legendtext" text-anchor="start" x="40" y="4.680000000000001" style="font-family: 'Open Sans', verdana, arial, sans-serif; font-size: 12px; fill: rgb(42, 63, 95); fill-opacity: 1; white-space: pre;">Dsi(Omega)</text><g class="layers" style="opacity: 1;"><g class="legendfill"/><g class="legendlines"><path class="js-line" d="M5,0h30" style="fill: none; stroke: rgb(255, 161, 90); stroke-opacity: 1; stroke-width: 2px;"/></g><g class="legendsymbols"><g class="legendpoints"><path class="scatterpts" transform="translate(20,0)" d="M3,0A3,3 0 1,1 0,-3A3,3 0 0,1 3,0Z" style="opacity: 1; stroke-width: 0px; fill: rgb(255, 161, 90); fill-opacity: 1;"/></g></g></g><rect class="legendtoggle" x="0" y="-9.5" width="161.765625" height="19" style="fill: rgb(0, 0, 0); fill-opacity: 0;"/></g><g class="traces" transform="translate(0,127.7)" style="opacity: 1;"><text class="legendtext" text-anchor="start" x="40" y="4.680000000000001" style="font-family: 'Open Sans', verdana, arial, sans-serif; font-size: 12px; fill: rgb(42, 63, 95); fill-opacity: 1; white-space: pre;">Dsi(Pik=3)</text><g class="layers" style="opacity: 1;"><g class="legendfill"/><g class="legendlines"><path class="js-line" d="M5,0h30" style="fill: none; stroke: rgb(25, 211, 243); stroke-opacity: 1; stroke-width: 2px;"/></g><g class="legendsymbols"><g class="legendpoints"><path class="scatterpts" transform="translate(20,0)" d="M3,0A3,3 0 1,1 0,-3A3,3 0 0,1 3,0Z" style="opacity: 1; stroke-width: 0px; fill: rgb(25, 211, 243); fill-opacity: 1;"/></g></g></g><rect class="legendtoggle" x="0" y="-9.5" width="161.765625" height="19" style="fill: rgb(0, 0, 0); fill-opacity: 0;"/></g><g class="traces" transform="translate(0,146.7)" style="opacity: 1;"><text class="legendtext" text-anchor="start" x="40" y="4.680000000000001" style="font-family: 'Open Sans', verdana, arial, sans-serif; font-size: 12px; fill: rgb(42, 63, 95); fill-opacity: 1; white-space: pre;">Dsi(Ricelog2_b=9)</text><g class="layers" style="opacity: 1;"><g class="legendfill"/><g class="legendlines"><path class="js-line" d="M5,0h30" style="fill: none; stroke: rgb(255, 102, 146); stroke-opacity: 1; stroke-width: 2px;"/></g><g class="legendsymbols"><g class="legendpoints"><path class="scatterpts" transform="translate(20,0)" d="M3,0A3,3 0 1,1 0,-3A3,3 0 0,1 3,0Z" style="opacity: 1; stroke-width: 0px; fill: rgb(255, 102, 146); fill-opacity: 1;"/></g></g></g><rect class="legendtoggle" x="0" y="-9.5" width="161.765625" height="19" style="fill: rgb(0, 0, 0); fill-opacity: 0;"/></g><g class="traces" transform="translate(0,165.7)" style="opacity: 1;"><text class="legendtext" text-anchor="start" x="40" y="4.680000000000001" style="font-family: 'Open Sans', verdana, arial, sans-serif; font-size: 12px; fill: rgb(42, 63, 95); fill-opacity: 1; white-space: pre;">Dsi(VByteBe)</text><g class="layers" style="opacity: 1;"><g class="legendfill"/><g class="legendlines"><path class="js-line" d="M5,0h30" style="fill: none; stroke: rgb(182, 232, 128); stroke-opacity: 1; stroke-width: 2px;"/></g><g class="legendsymbols"><g class="legendpoints"><path class="scatterpts" transform="translate(20,0)" d="M3,0A3,3 0 1,1 0,-3A3,3 0 0,1 3,0Z" style="opacity: 1; stroke-width: 0px; fill: rgb(182, 232, 128); fill-opacity: 1;"/></g></g></g><rect class="legendtoggle" x="0" y="-9.5" width="161.765625" height="19" style="fill: rgb(0, 0, 0); fill-opacity: 0;"/></g><g class="traces" transform="translate(0,184.7)" style="opacity: 1;"><text class="legendtext" text-anchor="start" x="40" y="4.680000000000001" style="font-family: 'Open Sans', verdana, arial, sans-serif; font-size: 12px; fill: rgb(42, 63, 95); fill-opacity: 1; white-space: pre;">Dsi(VByteLe)</text><g class="layers" style="opacity: 1;"><g class="legendfill"/><g class="legendlines"><path class="js-line" d="M5,0h30" style="fill: none; stroke: rgb(255, 151, 255); stroke-opacity: 1; stroke-width: 2px;"/></g><g class="legendsymbols"><g class="legendpoints"><path class="scatterpts" transform="translate(20,0)" d="M3,0A3,3 0 1,1 0,-3A3,3 0 0,1 3,0Z" style="opacity: 1; stroke-width: 0px; fill: rgb(255, 151, 255); fill-opacity: 1;"/></g></g></g><rect class="legendtoggle" x="0" y="-9.5" width="161.765625" height="19" style="fill: rgb(0, 0, 0); fill-opacity: 0;"/></g><g class="traces" transform="translate(0,203.7)" style="opacity: 1;"><text class="legendtext" text-anchor="start" x="40" y="4.680000000000001" style="font-family: 'Open Sans', verdana, arial, sans-serif; font-size: 12px; fill: rgb(42, 63, 95); fill-opacity: 1; white-space: pre;">Dsi(Zetak=3)</text><g class="layers" style="opacity: 1;"><g class="legendfill"/><g class="legendlines"><path class="js-line" d="M5,0h30" style="fill: none; stroke: rgb(254, 203, 82); stroke-opacity: 1; stroke-width: 2px;"/></g><g class="legendsymbols"><g class="legendpoints"><path class="scatterpts" transform="translate(20,0)" d="M3,0A3,3 0 1,1 0,-3A3,3 0 0,1 3,0Z" style="opacity: 1; stroke-width: 0px; fill: rgb(254, 203, 82); fill-opacity: 1;"/></g></g></g><rect class="legendtoggle" x="0" y="-9.5" width="161.765625" height="19" style="fill: rgb(0, 0, 0); fill-opacity: 0;"/></g><g class="traces" transform="translate(0,222.7)" style="opacity: 1;"><text class="legendtext" text-anchor="start" x="40" y="4.680000000000001" style="font-family: 'Open Sans', verdana, arial, sans-serif; font-size: 12px; fill: rgb(42, 63, 95); fill-opacity: 1; white-space: pre;">Fixednum_bits=10</text><g class="layers" style="opacity: 1;"><g class="legendfill"/><g class="legendlines"><path class="js-line" d="M5,0h30" style="fill: none; stroke: rgb(99, 110, 250); stroke-opacity: 1; stroke-width: 2px;"/></g><g class="legendsymbols"><g class="legendpoints"><path class="scatterpts" transform="translate(20,0)" d="M3,0A3,3 0 1,1 0,-3A3,3 0 0,1 3,0Z" style="opacity: 1; stroke-width: 0px; fill: rgb(99, 110, 250); fill-opacity: 1;"/></g></g></g><rect class="legendtoggle" x="0" y="-9.5" width="161.765625" height="19" style="fill: rgb(0, 0, 0); fill-opacity: 0;"/></g></g></g><rect class="scrollbar" rx="20" ry="3" width="0" height="0" style="fill: rgb(128, 139, 164); fill-opacity: 1;" x="0" y="0"/></g><g class="g-gtitle"><text class="gtitle" x="80" y="50" text-anchor="start" dy="0em" style="opacity: 1; font-family: 'Open Sans', verdana, arial, sans-serif; font-size: 17px; fill: rgb(42, 63, 95); fill-opacity: 1; white-space: pre;"><tspan class="line" dy="0em" x="80" y="50">Memory Space vs. Sampling Rate (k)</tspan><tspan class="line" dy="1.3em" x="80" y="50">Geometric_1000000, 1,000,000 elements</tspan><tspan class="line" dy="2.6em" x="80" y="50">UniformLow_1000000, 1,000,000 elements</tspan></text></g><g class="g-xtitle"><text class="xtitle" x="737.5" y="860.3" text-anchor="middle" style="opacity: 1; font-family: 'Open Sans', verdana, arial, sans-serif; font-size: 14px; fill: rgb(42, 63, 95); fill-opacity: 1; white-space: pre;">Sampling Rate (k)</text></g><g class="g-ytitle"><text class="ytitle" transform="rotate(-90,37.38125,460)" x="37.38125" y="460" text-anchor="middle" style="opacity: 1; font-family: 'Open Sans', verdana, arial, sans-serif; font-size: 14px; fill: rgb(42, 63, 95); fill-opacity: 1; white-space: pre;">Total Space Usage (KB)</text></g></g></svg>